<svg width="201" height="201" viewBox="0 0 201 201" fill="none" xmlns="http://www.w3.org/2000/svg">
<rect width="201" height="201" fill="black"/>
<path d="M103.933 156.558C87.3742 156.558 73.9235 151.112 63.5811 140.219C53.2936 129.327 48.1499 114.226 48.1499 94.916C48.1499 75.6064 53.2661 60.5054 63.4985 49.6128C73.786 38.6652 86.9616 33.1914 103.025 33.1914C116.889 33.1914 128.139 36.1896 136.776 42.186C145.413 48.1274 150.804 56.5444 152.95 67.437C153.17 68.8123 152.592 69.5 151.217 69.5H140.572C139.582 69.5 138.921 68.9499 138.591 67.8496C133.86 52.666 122.005 45.0467 103.025 44.9917C91.6377 44.9917 82.1755 49.2002 74.6387 57.6172C67.1019 65.9792 63.3335 78.3846 63.3335 94.8335C63.3335 111.282 67.1294 123.715 74.7212 132.132C82.368 140.494 92.1053 144.675 103.933 144.675C122.858 144.675 134.685 137.083 139.417 121.9C139.747 120.8 140.407 120.222 141.397 120.167H152.042C153.197 120.167 153.775 120.662 153.775 121.652C153.775 126.549 152.152 131.335 148.906 136.011C139.499 149.709 124.508 156.558 103.933 156.558Z" fill="white"/>
</svg>
